<?xml version="1.0" encoding="UTF-8"?>
<svg id="Ebene_2" data-name="Ebene 2" xmlns="http://www.w3.org/2000/svg" viewBox="0 0 1969.85 2592.25">
  <defs>
    <style>
      .cls-1 {
        fill: #fff;
      }
    </style>
  </defs>
  <g id="Ebene_2-2" data-name="Ebene 2">
    <g id="Ebene_3" data-name="Ebene 3">
      <g>
        <path class="cls-1" d="M1609.93,0c0,81.19-19.26,190.03-134.27,306.46-88.51,89.6-296.72,210.88-450.7,396.7-21.28,25.67-41.52,52.58-60.26,80.8-19.85,29.88-38.02,61.23-53.97,94.17-1.64,3.38-3.25,6.78-4.85,10.18-12.16,26.1-23.52,51.27-33.97,75.78-18.43,43.23-34,84.37-46.11,124.95-10.59,35.5-18.54,70.56-23.4,106.19h0c-9.44,69-7.38,140.11,9.2,220.65,5.34,25.96,12.18,52.89,20.63,81.04.01.01,0,.01,0,.01,14.06,46.85,32.58,97.08,56.01,151.83,4.77,11.15,9.74,22.47,14.92,34,17.96,39.97,38.42,82.32,61.53,127.41-.78-.61-42.37-33.07-90.94-94.98-3.45-4.39-6.93-8.94-10.44-13.63-25.66-34.35-52.57-76.61-75.95-126.44-5.56-11.87-10.94-24.17-16.04-36.9-29.12-72.56-49.64-158.95-49.64-258.29,0-81.92,8.52-155.68,22.96-222.26,6.02-27.8,13.07-54.34,20.97-79.71,12.34-39.62,26.73-76.36,42.46-110.49,12.29-26.68,25.4-51.76,38.98-75.39,18.55-32.25,37.97-61.79,57.41-88.91,20.41-28.51,40.84-54.36,60.26-77.94,4.46-5.42,8.87-10.73,13.21-15.91C1085.84,480.47,1527.34,197.22,1609.93,0Z"/>
        <path class="cls-1" d="M1087.7,1744.66s-196.71-152.47-196.71-429.18,120.06-438.51,207.4-542.78c87.34-104.27,444.69-333.54,511.53-493.16,0,65.71-15.58,153.8-108.67,248.04-93.09,94.23-349.75,231.76-461.16,470.94s-139.62,380.84,47.6,746.14h.01Z"/>
        <path class="cls-1" d="M1210.44,1650.05s-150.48-116.64-150.48-328.31,91.84-335.45,158.66-415.21c66.82-79.77,340.17-255.15,391.31-377.26,0,50.27-11.92,117.66-83.13,189.74-71.21,72.09-267.55,177.29-352.78,360.26-85.23,182.97-106.8,291.33,36.42,570.78Z"/>
        <g>
          <path class="cls-1" d="M930.1,552.83c-9.31,10.24-17.4,19.83-24.08,28.67-4.08,5.4-8.21,10.92-12.39,16.56-7.25,9.74-14.62,19.85-22.06,30.35-142.46-144.61-306.87-244.97-382.91-321.96C373.64,190.03,354.38,81.19,354.38,0c72.03,172,417.09,409.46,575.72,552.83Z"/>
          <path class="cls-1" d="M812.3,719.78c-9.49,16.21-18.8,33.14-27.82,50.83-3.25,6.38-6.47,12.87-9.64,19.46-115.73-118.06-249.91-199.84-311.79-262.49-93.08-94.23-108.67-182.33-108.67-248.04,57.12,136.37,326.26,323.58,457.92,440.23h0Z"/>
          <path class="cls-1" d="M732.8,892.46c-7.38,21.58-14.16,44.03-20.19,67.44-94.91-112.39-221.04-186.17-275.09-240.88-71.21-72.09-83.14-139.49-83.14-189.75,48.32,115.37,294.98,278.29,378.42,363.19Z"/>
        </g>
      </g>
    </g>
    <g>
      <path class="cls-1" d="M50.31,2212.25l9.69,200,9.69-200,12.71-170h37.61l-40.11,540h-42.29L0,2042.25h40.11l10.2,170Z"/>
      <path class="cls-1" d="M282.8,2532.25c0,2.5-.31,7.03-.94,13.59s-2.81,13.28-6.56,20.16-9.69,12.97-17.81,18.28-19.69,7.97-34.69,7.97-26.56-2.66-34.69-7.97-14.06-11.41-17.81-18.28-5.94-13.59-6.56-20.16-.94-11.09-.94-13.59v-440c0-1.67.1-4.17.31-7.5.21-3.33.83-7.03,1.88-11.09,1.04-4.06,2.81-8.23,5.31-12.5,2.5-4.27,5.94-8.17,10.31-11.72,4.38-3.54,10-6.41,16.88-8.59s15.31-3.28,25.31-3.28,18.44,1.09,25.31,3.28,12.5,5.05,16.88,8.59c4.38,3.54,7.81,7.45,10.31,11.72,2.5,4.27,4.27,8.44,5.31,12.5,1.04,4.06,1.67,7.76,1.88,11.09.21,3.33.31,5.83.31,7.5v440ZM202.8,2532.25c0,2.5.1,5.47.31,8.91.21,3.44.94,6.72,2.19,9.84s3.23,5.78,5.94,7.97c2.71,2.19,6.56,3.28,11.56,3.28s8.85-1.09,11.56-3.28c2.71-2.19,4.69-4.84,5.94-7.97s1.98-6.41,2.19-9.84c.21-3.44.31-6.41.31-8.91v-440c0-2.5-.11-5.21-.31-8.12-.21-2.92-.94-5.57-2.19-7.97-1.25-2.39-3.23-4.42-5.94-6.09-2.71-1.67-6.56-2.5-11.56-2.5s-8.86.83-11.56,2.5c-2.71,1.67-4.69,3.7-5.94,6.09-1.25,2.4-1.98,5.05-2.19,7.97-.21,2.92-.31,5.62-.31,8.12v440Z"/>
      <path class="cls-1" d="M375.6,2042.25v510h40v30h-80v-540h40Z"/>
      <path class="cls-1" d="M508.4,2042.25v510h40v30h-80v-540h40Z"/>
      <path class="cls-1" d="M691.2,2072.25h-50v210h40v30h-40v240h50v30h-90v-540h90v30Z"/>
      <path class="cls-1" d="M774,2182.25l10,140,15.93-139.32,4.07-140.68h40l-40,349.91v190.09h-40v-190l-40-350h40l10,140Z"/>
      <path class="cls-1" d="M1006.8,2532.25c0,12.5-2.29,22.14-6.88,28.91-4.58,6.77-10.62,11.72-18.12,14.84s-16.04,4.95-25.62,5.47c-9.58.52-19.38.78-29.38.78h-40v-540h40c12.5,0,23.7.26,33.59.78,9.89.52,18.28,2.34,25.16,5.47s12.13,8.08,15.78,14.84c3.64,6.77,5.47,16.41,5.47,28.91v170c0,10-2.5,17.71-7.5,23.12-5,5.42-12.5,9.48-22.5,12.19,10,2.29,17.5,6.15,22.5,11.56,5,5.42,7.5,13.12,7.5,23.12v200ZM926.8,2282.25h30c2.5,0,4.42-.57,5.78-1.72,1.35-1.14,2.34-2.66,2.97-4.53s.99-4.01,1.09-6.41c.1-2.39.16-4.84.16-7.34v-170c0-5-.68-8.85-2.03-11.56-1.36-2.71-3.59-4.69-6.72-5.94s-7.24-1.98-12.34-2.19c-5.11-.21-11.41-.31-18.91-.31v210ZM966.8,2332.25c0-2.5-.05-4.95-.16-7.34-.11-2.39-.47-4.53-1.09-6.41s-1.62-3.38-2.97-4.53c-1.36-1.14-3.28-1.72-5.78-1.72h-30v240c7.5,0,13.8-.1,18.91-.31,5.1-.21,9.22-.94,12.34-2.19s5.36-3.23,6.72-5.94c1.35-2.71,2.03-6.56,2.03-11.56v-200Z"/>
      <path class="cls-1" d="M1179.6,2262.25c0,15-2.5,25.42-7.5,31.25-5,5.83-12.5,8.75-22.5,8.75,5,0,9.38,1.15,13.12,3.44,3.75,2.29,6.88,5.31,9.38,9.06s4.38,8.02,5.62,12.81c1.25,4.79,1.88,9.69,1.88,14.69v240h-40v-250c0-5-1.15-8.85-3.44-11.56-2.29-2.71-5.31-4.69-9.06-5.94s-8.02-1.98-12.81-2.19c-4.79-.21-9.69-.31-14.69-.31v270h-40v-540h40c10,0,19.79.26,29.38.78,9.58.52,18.12,2.34,25.62,5.47s13.54,8.08,18.12,14.84c4.58,6.77,6.88,16.41,6.88,28.91v170ZM1139.6,2092.25c0-5-.68-8.85-2.03-11.56-1.36-2.71-3.59-4.69-6.72-5.94s-7.24-1.98-12.34-2.19c-5.11-.21-11.41-.31-18.91-.31v220c5,0,9.89-.1,14.69-.31,4.79-.21,9.06-.94,12.81-2.19s6.77-3.23,9.06-5.94c2.29-2.71,3.44-6.56,3.44-11.56v-180Z"/>
      <path class="cls-1" d="M1342.4,2582.25h-40l-5-130h-29.69l-5.31,130h-40l30-540h60l30,540ZM1292.4,2302.25l-10-240-10,240-4.69,120h29.69l-5-120Z"/>
      <path class="cls-1" d="M1493.01,2042.25v30h-40v510h-40v-510h-40v-30h120Z"/>
      <path class="cls-1" d="M1644.25,2582.25h-40l-5-130h-29.69l-5.31,130h-40l30-540h60l30,540ZM1594.25,2302.25l-10-240-10,240-4.69,120h29.69l-5-120Z"/>
      <path class="cls-1" d="M1807.05,2582.25h-40l-50-400.79v400.79h-30v-540h40l50,400.79v-400.79h30v540Z"/>
      <path class="cls-1" d="M1929.85,2450.67c0-22.08-1.15-41.04-3.43-56.88s-5.3-29.64-9.04-41.41-8.17-21.89-13.29-30.36-10.07-16.67-14.87-24.6c-4.79-7.93-9.54-15.78-14.22-23.53s-8.9-16.53-12.65-26.32c-3.75-9.79-6.77-21.09-9.06-33.91-2.29-12.81-3.44-28.17-3.44-46.09v-75.31c0-5,.78-10.67,2.34-17.03,1.56-6.35,4.53-12.29,8.91-17.81,4.38-5.52,10.47-10.21,18.28-14.06,7.81-3.85,17.97-5.78,30.47-5.78s22.66,1.93,30.47,5.78c7.81,3.86,13.91,8.54,18.28,14.06,4.38,5.52,7.34,11.46,8.91,17.81,1.56,6.36,2.34,12.03,2.34,17.03v140h-40v-140c0-5-.58-9.11-1.72-12.34-1.15-3.23-2.66-5.73-4.53-7.5-1.88-1.77-4.01-3.02-6.41-3.75-2.4-.73-4.84-1.09-7.34-1.09s-4.95.37-7.34,1.09c-2.4.73-4.53,1.97-6.41,3.74s-3.39,4.26-4.53,7.49c-1.15,3.22-1.72,7.33-1.72,12.31v60.81c0,23.5,2.02,43.14,6.07,58.94,4.05,15.8,9.11,29.58,15.19,41.32s12.22,22.62,18.42,32.62c6.2,10,12.63,20.36,19.27,31.06,6.64,10.71,11.81,23.42,15.51,38.13,3.69,14.72,5.54,33.03,5.54,54.94v122.1c0,2.5-.31,7.05-.94,13.62-.62,6.58-2.81,13.31-6.56,20.2-3.75,6.89-9.69,12.99-17.81,18.32s-19.69,7.98-34.69,7.98-26.56-2.66-34.69-7.97-14.06-11.41-17.81-18.28-5.94-13.59-6.56-20.16-.94-11.09-.94-13.59v-180h40v180c0,2.5.1,5.47.31,8.91.21,3.44.94,6.72,2.19,9.84s3.23,5.78,5.94,7.97c2.71,2.19,6.56,3.28,11.56,3.28s8.85-1.09,11.56-3.28c2.71-2.19,4.69-4.84,5.94-7.97s1.98-6.41,2.19-9.84c.21-3.44.31-6.41.31-8.91v-81.57Z"/>
    </g>
  </g>
</svg>