<?xml version="1.0" encoding="UTF-8"?>
<svg id="Ebene_2" data-name="Ebene 2" xmlns="http://www.w3.org/2000/svg" viewBox="0 0 1255.55 1810.18">
  <defs>
    <style>
      .cls-1 {
        fill: #1d1d1b;
      }
    </style>
  </defs>
  <g id="Ebene_3" data-name="Ebene 3">
    <g>
      <path class="cls-1" d="M1255.55,0c0,81.19-19.26,190.03-134.27,306.46-88.51,89.6-296.72,210.88-450.7,396.7-21.28,25.67-41.52,52.58-60.26,80.8-19.85,29.88-38.02,61.23-53.97,94.17-1.64,3.38-3.25,6.78-4.85,10.18-12.16,26.1-23.52,51.27-33.97,75.78-18.43,43.23-34,84.37-46.11,124.95-10.59,35.5-18.54,70.56-23.4,106.19h0c-9.44,69-7.38,140.11,9.2,220.65,5.34,25.96,12.18,52.89,20.63,81.04.01.01,0,.01,0,.01,14.06,46.85,32.58,97.08,56.01,151.83,4.77,11.15,9.74,22.47,14.92,34,17.96,39.97,38.42,82.32,61.53,127.41-.78-.61-42.37-33.07-90.94-94.98-3.45-4.39-6.93-8.94-10.44-13.63-25.66-34.35-52.57-76.61-75.95-126.44-5.56-11.87-10.94-24.17-16.04-36.9-29.12-72.56-49.64-158.95-49.64-258.29,0-81.92,8.52-155.68,22.96-222.26,6.02-27.8,13.07-54.34,20.97-79.71,12.34-39.62,26.73-76.36,42.46-110.49,12.29-26.68,25.4-51.76,38.98-75.39,18.55-32.25,37.97-61.79,57.41-88.91,20.41-28.51,40.84-54.36,60.26-77.94,4.46-5.42,8.87-10.73,13.21-15.91C731.46,480.47,1172.96,197.22,1255.55,0Z"/>
      <path class="cls-1" d="M733.32,1744.66s-196.71-152.47-196.71-429.18,120.06-438.51,207.4-542.78c87.34-104.27,444.69-333.54,511.53-493.16,0,65.71-15.58,153.8-108.67,248.04-93.09,94.23-349.75,231.76-461.16,470.94-111.41,239.18-139.62,380.84,47.6,746.14Z"/>
      <path class="cls-1" d="M856.06,1650.05s-150.48-116.64-150.48-328.31,91.84-335.45,158.66-415.21c66.82-79.77,340.17-255.15,391.31-377.26,0,50.27-11.92,117.66-83.13,189.74-71.21,72.09-267.55,177.29-352.78,360.26-85.23,182.97-106.8,291.33,36.42,570.78Z"/>
      <g>
        <path class="cls-1" d="M575.72,552.83c-9.31,10.24-17.4,19.83-24.08,28.67-4.08,5.4-8.21,10.92-12.39,16.56-7.25,9.74-14.62,19.85-22.06,30.35-142.46-144.61-306.87-244.97-382.91-321.96C19.26,190.03,0,81.19,0,0c72.03,172,417.09,409.46,575.72,552.83Z"/>
        <path class="cls-1" d="M457.92,719.78c-9.49,16.21-18.8,33.14-27.82,50.83-3.25,6.38-6.47,12.87-9.64,19.46-115.73-118.06-249.91-199.84-311.79-262.49C15.59,433.35,0,345.25,0,279.54c57.12,136.37,326.26,323.58,457.92,440.23Z"/>
        <path class="cls-1" d="M378.42,892.46c-7.38,21.58-14.16,44.03-20.19,67.44-94.91-112.39-221.04-186.17-275.09-240.88C11.93,646.93,0,579.53,0,529.27c48.32,115.37,294.98,278.29,378.42,363.19Z"/>
      </g>
    </g>
  </g>
</svg>